Coordinates
version=1
nRows=10
nColumns=40
inDegrees=yes

Units are S.I. units (second, meters, Newtons, ...)
Angles are in degrees.

endheader
time	pelvis_tilt	pelvis_list	pelvis_rotation	pelvis_tx	pelvis_ty	pelvis_tz	hip_flexion_r	hip_adduction_r	hip_rotation_r	knee_angle_r	knee_angle_r_beta	ankle_angle_r	subtalar_angle_r	mtp_angle_r	hip_flexion_l	hip_adduction_l	hip_rotation_l	knee_angle_l	knee_angle_l_beta	ankle_angle_l	subtalar_angle_l	mtp_angle_l	lumbar_extension	lumbar_bending	lumbar_rotation	arm_flex_r	arm_add_r	arm_rot_r	elbow_flex_r	pro_sup_r	wrist_flex_r	wrist_dev_r	arm_flex_l	arm_add_l	arm_rot_l	elbow_flex_l	pro_sup_l	wrist_flex_l	wrist_dev_l
      6.46000000	     -6.91968072	     -5.83842056	      1.19377158	      1.03399631	      0.93023907	      0.50745434	     13.87880868	      3.91843357	    -19.55430492	     11.99305235	     11.99305235	      7.55381375	      6.35799567	     -4.08296795	     39.06885248	    -14.16024003	      2.91742801	     69.35811508	     69.35811508	     10.82231845	    -18.45865578	     12.05904107	    -12.30549313	      7.21091518	      5.10368391	     15.78400650	    -14.57019674	      2.34844454	     40.79284247	     45.12937043	      0.00000000	      0.00000000	      1.75976578	     -7.69277859	     -1.74426712	     43.46892574	     45.33837341	      0.00000000	      0.00000000
      6.47135714	     -6.91139159	     -5.81213756	      1.22106940	      1.03211714	      0.93027852	      0.50819400	     13.34494006	      3.99979135	    -19.42684881	     11.85409216	     11.85409216	      7.88101366	      6.34027902	     -4.20904049	     40.18845287	    -13.96788629	      3.16018695	     67.88876063	     67.88876063	     10.59752431	    -18.37218971	     12.14164787	    -12.38178138	      7.01664047	      4.89452159	     18.23964888	    -14.52135032	      2.27692371	     42.42044018	     45.09348931	      0.00000000	      0.00000000	      0.18893350	     -7.76324131	     -1.66399445	     41.75062188	     45.32229201	      0.00000000	      0.00000000
      6.48271429	     -6.90479156	     -5.78677909	      1.25877169	      1.03028178	      0.93021062	      0.50882484	     12.79292488	      4.07356442	    -19.41331057	     11.67728156	     11.67728156	      8.23090329	      6.37459341	     -4.37636496	     41.17788730	    -13.79602762	      3.31590034	     66.23295326	     66.23295326	     10.30053606	    -18.31985343	     12.10612814	    -12.46989687	      6.87925384	      4.79305953	     20.60052695	    -14.56961256	      2.54036469	     44.41439392	     45.03059857	      0.00000000	      0.00000000	     -0.97482704	     -7.65302787	     -1.69107663	     39.21036120	     45.33166686	      0.00000000	      0.00000000
      6.49407143	     -6.88792695	     -5.78148450	      1.26890180	      1.02848630	      0.93014704	      0.50945272	     12.24702317	      4.16357183	    -19.32103200	     11.51650266	     11.51650266	      8.51318079	      6.51125866	     -4.60143415	     41.97975155	    -13.62206227	      3.50607237	     64.30937839	     64.30937839	      9.85924052	    -18.24575245	     11.79447544	    -12.58453459	      6.74282250	      5.35636863	     22.19798913	    -15.44094193	      3.71888874	     47.34871593	     44.91177776	      0.00000000	      0.00000000	     -0.97556391	     -7.16317760	     -2.27001485	     34.73503171	     45.47676971	      0.00000000	      0.00000000
      6.50542857	     -6.84949627	     -5.75977821	      1.31633158	      1.02673988	      0.93005020	      0.50990360	     11.68373279	      4.22871675	    -19.24233892	     11.36308760	     11.36308760	      8.84632663	      6.51013187	     -4.68106168	     42.63407711	    -13.38174424	      3.69594846	     62.18199593	     62.18199593	      9.59339882	    -18.18450339	     12.09222260	    -12.73199812	      6.58585834	      5.32187460	     24.50897201	    -15.44191085	      3.56123517	     48.95117214	     44.87990747	      0.00000000	      0.00000000	     -2.39249941	     -7.19327000	     -2.29311592	     33.44458836	     45.47012858	      0.00000000	      0.00000000
      6.51678571	     -6.86591854	     -5.83204154	      1.40327478	      1.02505579	      0.92975338	      0.51023897	     11.14201146	      4.39069005	    -19.25254445	     11.12942667	     11.12942667	      9.16567528	      6.58627653	     -4.76782142	     43.24602311	    -13.22459680	      3.90674318	     59.82358856	     59.82358856	      9.31324909	    -17.98795797	     12.23762489	    -12.79220180	      6.56154368	      5.17813375	     26.58967944	    -15.48327553	      3.70494457	     51.24929712	     44.81589739	      0.00000000	      0.00000000	     -3.47394937	     -7.12957104	     -2.44833071	     31.26554319	     45.50101621	      0.00000000	      0.00000000
      6.52814286	     -6.86417942	     -5.86219462	      1.46565326	      1.02348733	      0.92947432	      0.51040684	     10.58315926	      4.49609223	    -19.19919934	     10.91825537	     10.91825537	      9.49064170	      6.66835173	     -4.86644383	     43.61470403	    -13.02352536	      4.04430534	     57.11756240	     57.11756240	      8.90592893	    -17.84035213	     11.89241772	    -12.88214788	      6.49280310	      5.80505490	     27.83608212	    -16.43646382	      4.23525996	     54.84173758	     44.71789703	      0.00000000	      0.00000000	     -3.63875675	     -6.82760780	     -3.19881560	     28.11929148	     45.68196836	      0.00000000	      0.00000000
      6.53950000	     -6.88081923	     -5.89026417	      1.56695843	      1.02194540	      0.92912992	      0.51043315	     10.03188919	      4.59643623	    -19.16208271	     10.68162370	     10.68162370	      9.81671426	      6.67851995	     -4.93407541	     43.87775422	    -12.78137523	      4.17599318	     54.18015168	     54.18015168	      8.73571800	    -17.54418716	     12.21171352	    -12.93092401	      6.40412404	      5.69386599	     29.96982805	    -16.33338205	      3.97548875	     56.55409172	     44.68635859	      0.00000000	      0.00000000	     -4.94221371	     -6.88591500	     -3.28098036	     27.20226368	     45.68361230	      0.00000000	      0.00000000
      6.55085714	     -6.91419392	     -5.96522391	      1.69926830	      1.02054475	      0.92868478	      0.51022927	      9.45087039	      4.74058193	    -19.14729356	     10.36712607	     10.36712607	     10.12270916	      6.73397409	     -4.98740399	     43.99957525	    -12.54070658	      4.33461796	     50.98823760	     50.98823760	      8.60605554	    -17.13290087	     12.37573690	    -12.92646588	      6.41619142	      5.46919674	     31.92847651	    -16.16627467	      3.82340641	     58.80831543	     44.63158281	      0.00000000	      0.00000000	     -6.19869256	     -6.93535847	     -3.38170521	     26.22809926	     45.69131345	      0.00000000	      0.00000000
      6.56221429	     -6.99325887	     -6.15080101	      1.88480827	      1.01923791	      0.92804316	      0.50985836	      8.86693538	      5.00532337	    -19.22089923	      9.95780040	      9.95780040	     10.39843128	      6.83529821	     -5.02877056	     44.05566022	    -12.36447494	      4.54718151	     47.58940773	     47.58940773	      8.37980464	    -16.57993565	     12.10767706	    -12.89565026	      6.57824605	      5.35728174	     33.48703831	    -16.31783257	      3.76929228	     62.24605345	     44.53978085	      0.00000000	      0.00000000	     -7.31590118	     -6.90758581	     -3.60094087	     25.27755964	     45.73043201	      0.00000000	      0.00000000
